# xmcd CD database file
#
# Track frame offsets:
#	150
#	30530
#	68782
#	106597
#	141207
#	154567
#	187360
#	215420
#	227875
#
# Disc length: 3196 seconds
#
# Revision: 0
# Processed by: cddbd v1.4PL0 Copyright (c) Steve Scherf et al.
# Submitted via: CDex 1.50beta9
#
DISCID=790c7a09
DTITLE=Bill Charlap Trio - Distant Star
DYEAR=1997
DGENRE=Jazz
TTITLE0=Along The Way
TTITLE1=While We're Young
TTITLE2=Last Night When We Were Young
TTITLE3=Here I'll Stay
TTITLE4=Distant Star
TTITLE5=Bon Ami
TTITLE6='39 Worlds Fair
TTITLE7=Starlight
TTITLE8=The Heather On The Hill
EXTD=YEAR: 1997
EXTT0=
EXTT1=
EXTT2=
EXTT3=
EXTT4=
EXTT5=
EXTT6=
EXTT7=
EXTT8=
PLAYORDER=
